# MagicaVoxel @ Ephtracy

# group
o 

# material
mtllib lvl_lobby_pitfalls.mtl
usemtl palette

# normals
vn -1 0 0
vn 1 0 0
vn 0 0 1
vn 0 0 -1
vn 0 -1 0
vn 0 1 0

# texcoords
vt 0.341797 0.5
vt 0.369141 0.5
vt 0.427734 0.5
vt 0.958984 0.5

# verts
v -1.9 0 2.8
v -1.9 0 -2.8
v -1.9 2.4 2.8
v -1.9 2.4 -2.8
v -1.4 0 1.3
v -1.4 0 0.5
v -1.4 0 0.0999999
v -1.4 0 -0.7
v -1.4 0 -1.1
v -1.4 0 -1.9
v -1.4 1.3 1.3
v -1.4 1.3 0.5
v -1.4 1.3 0.0999999
v -1.4 1.3 -0.7
v -1.4 1.3 -1.1
v -1.4 1.3 -1.9
v -0.2 0 1.3
v -0.2 0 0.5
v -0.2 0 0.0999999
v -0.2 0 -0.7
v -0.2 0 -1.1
v -0.2 0 -1.9
v -0.2 1.3 1.3
v -0.2 1.3 0.5
v -0.2 1.3 0.0999999
v -0.2 1.3 -0.7
v -0.2 1.3 -1.1
v -0.2 1.3 -1.9
v 1 0 1.3
v 1 0 0.5
v 1 0 0.0999999
v 1 0 -0.7
v 1 0 -1.1
v 1 0 -1.9
v 1 1.3 1.3
v 1 1.3 0.5
v 1 1.3 0.0999999
v 1 1.3 -0.7
v 1 1.3 -1.1
v 1 1.3 -1.9
v 1.8 0 1.3
v 1.8 0 0.5
v 1.8 0 0.0999999
v 1.8 0 -0.7
v 1.8 0 -1.1
v 1.8 0 -1.9
v 1.8 1.3 2.8
v 1.8 1.3 1.3
v 1.8 1.3 0.5
v 1.8 1.3 0.0999999
v 1.8 1.3 -0.7
v 1.8 1.3 -1.1
v 1.8 1.3 -1.9
v 1.8 1.3 -2.7
v 1.8 2.3 2.8
v 1.8 2.3 -2.7
v -1.8 0 1.3
v -1.8 0 0.5
v -1.8 0 0.0999999
v -1.8 0 -0.7
v -1.8 0 -1.1
v -1.8 0 -1.9
v -1.8 1.3 2.8
v -1.8 1.3 1.3
v -1.8 1.3 0.5
v -1.8 1.3 0.0999999
v -1.8 1.3 -0.7
v -1.8 1.3 -1.1
v -1.8 1.3 -1.9
v -1.8 1.3 -2.7
v -1.8 2.3 2.8
v -1.8 2.3 -2.7
v -1 0 1.3
v -1 0 0.5
v -1 0 0.0999999
v -1 0 -0.7
v -1 0 -1.1
v -1 0 -1.9
v -1 1.3 1.3
v -1 1.3 0.5
v -1 1.3 0.0999999
v -1 1.3 -0.7
v -1 1.3 -1.1
v -1 1.3 -1.9
v 0.2 0 1.3
v 0.2 0 0.5
v 0.2 0 0.0999999
v 0.2 0 -0.7
v 0.2 0 -1.1
v 0.2 0 -1.9
v 0.2 1.3 1.3
v 0.2 1.3 0.5
v 0.2 1.3 0.0999999
v 0.2 1.3 -0.7
v 0.2 1.3 -1.1
v 0.2 1.3 -1.9
v 1.4 0 1.3
v 1.4 0 0.5
v 1.4 0 0.0999999
v 1.4 0 -0.7
v 1.4 0 -1.1
v 1.4 0 -1.9
v 1.4 1.3 1.3
v 1.4 1.3 0.5
v 1.4 1.3 0.0999999
v 1.4 1.3 -0.7
v 1.4 1.3 -1.1
v 1.4 1.3 -1.9
v 1.9 0 2.8
v 1.9 0 -2.8
v 1.9 2.4 2.8
v 1.9 2.4 -2.8
v -1.9 0 2.8
v -1.9 2.4 2.8
v -1.8 0 2.8
v -1.8 1.3 2.8
v -1.8 2.3 2.8
v -1.8 2.4 2.8
v 1.8 0 2.8
v 1.8 1.3 2.8
v 1.8 2.3 2.8
v 1.8 2.4 2.8
v 1.9 0 2.8
v 1.9 2.4 2.8
v -1.8 0 0.5
v -1.8 1.3 0.5
v -1.4 0 0.5
v -1.4 1.3 0.5
v -1 0 0.5
v -1 1.3 0.5
v -0.2 0 0.5
v -0.2 1.3 0.5
v 0.2 0 0.5
v 0.2 1.3 0.5
v 1 0 0.5
v 1 1.3 0.5
v 1.4 0 0.5
v 1.4 1.3 0.5
v 1.8 0 0.5
v 1.8 1.3 0.5
v -1.8 0 -0.7
v -1.8 1.3 -0.7
v -1.4 0 -0.7
v -1.4 1.3 -0.7
v -1 0 -0.7
v -1 1.3 -0.7
v -0.2 0 -0.7
v -0.2 1.3 -0.7
v 0.2 0 -0.7
v 0.2 1.3 -0.7
v 1 0 -0.7
v 1 1.3 -0.7
v 1.4 0 -0.7
v 1.4 1.3 -0.7
v 1.8 0 -0.7
v 1.8 1.3 -0.7
v -1.8 0 -1.9
v -1.8 1.3 -1.9
v -1.4 0 -1.9
v -1.4 1.3 -1.9
v -1 0 -1.9
v -1 1.3 -1.9
v -0.2 0 -1.9
v -0.2 1.3 -1.9
v 0.2 0 -1.9
v 0.2 1.3 -1.9
v 1 0 -1.9
v 1 1.3 -1.9
v 1.4 0 -1.9
v 1.4 1.3 -1.9
v 1.8 0 -1.9
v 1.8 1.3 -1.9
v -1.8 1.3 -2.7
v -1.8 2.3 -2.7
v 1.8 1.3 -2.7
v 1.8 2.3 -2.7
v -1.8 0 1.3
v -1.8 1.3 1.3
v -1.4 0 1.3
v -1.4 1.3 1.3
v -1 0 1.3
v -1 1.3 1.3
v -0.2 0 1.3
v -0.2 1.3 1.3
v 0.2 0 1.3
v 0.2 1.3 1.3
v 1 0 1.3
v 1 1.3 1.3
v 1.4 0 1.3
v 1.4 1.3 1.3
v 1.8 0 1.3
v 1.8 1.3 1.3
v -1.8 0 0.0999999
v -1.8 1.3 0.0999999
v -1.4 0 0.0999999
v -1.4 1.3 0.0999999
v -1 0 0.0999999
v -1 1.3 0.0999999
v -0.2 0 0.0999999
v -0.2 1.3 0.0999999
v 0.2 0 0.0999999
v 0.2 1.3 0.0999999
v 1 0 0.0999999
v 1 1.3 0.0999999
v 1.4 0 0.0999999
v 1.4 1.3 0.0999999
v 1.8 0 0.0999999
v 1.8 1.3 0.0999999
v -1.8 0 -1.1
v -1.8 1.3 -1.1
v -1.4 0 -1.1
v -1.4 1.3 -1.1
v -1 0 -1.1
v -1 1.3 -1.1
v -0.2 0 -1.1
v -0.2 1.3 -1.1
v 0.2 0 -1.1
v 0.2 1.3 -1.1
v 1 0 -1.1
v 1 1.3 -1.1
v 1.4 0 -1.1
v 1.4 1.3 -1.1
v 1.8 0 -1.1
v 1.8 1.3 -1.1
v -1.9 0 -2.8
v -1.9 2.4 -2.8
v 1.9 0 -2.8
v 1.9 2.4 -2.8
v -1.9 0 2.8
v -1.8 0 2.8
v 1.8 0 2.8
v 1.9 0 2.8
v -1.8 0 1.3
v -1.4 0 1.3
v -1 0 1.3
v -0.2 0 1.3
v 0.2 0 1.3
v 1 0 1.3
v 1.4 0 1.3
v 1.8 0 1.3
v -1.8 0 0.5
v -1.4 0 0.5
v -1 0 0.5
v -0.2 0 0.5
v 0.2 0 0.5
v 1 0 0.5
v 1.4 0 0.5
v 1.8 0 0.5
v -1.8 0 0.0999999
v -1.4 0 0.0999999
v -1 0 0.0999999
v -0.2 0 0.0999999
v 0.2 0 0.0999999
v 1 0 0.0999999
v 1.4 0 0.0999999
v 1.8 0 0.0999999
v -1.8 0 -0.7
v -1.4 0 -0.7
v -1 0 -0.7
v -0.2 0 -0.7
v 0.2 0 -0.7
v 1 0 -0.7
v 1.4 0 -0.7
v 1.8 0 -0.7
v -1.8 0 -1.1
v -1.4 0 -1.1
v -1 0 -1.1
v -0.2 0 -1.1
v 0.2 0 -1.1
v 1 0 -1.1
v 1.4 0 -1.1
v 1.8 0 -1.1
v -1.8 0 -1.9
v -1.4 0 -1.9
v -1 0 -1.9
v -0.2 0 -1.9
v 0.2 0 -1.9
v 1 0 -1.9
v 1.4 0 -1.9
v 1.8 0 -1.9
v -1.8 0 -2.7
v 1.8 0 -2.7
v -1.9 0 -2.8
v 1.9 0 -2.8
v -1.8 2.3 2.8
v 1.8 2.3 2.8
v -1 2.3 1.3
v -0.2 2.3 1.3
v 0.2 2.3 1.3
v 1 2.3 1.3
v -1 2.3 0.5
v -0.2 2.3 0.5
v 0.2 2.3 0.5
v 1 2.3 0.5
v -1 2.3 0.0999999
v -0.2 2.3 0.0999999
v 0.2 2.3 0.0999999
v 1 2.3 0.0999999
v -1 2.3 -0.7
v -0.2 2.3 -0.7
v 0.2 2.3 -0.7
v 1 2.3 -0.7
v -1 2.3 -1.1
v -0.2 2.3 -1.1
v 0.2 2.3 -1.1
v 1 2.3 -1.1
v -1 2.3 -1.9
v -0.2 2.3 -1.9
v 0.2 2.3 -1.9
v 1 2.3 -1.9
v -1.8 2.3 -2.7
v 1.8 2.3 -2.7
v -1.8 1.3 2.8
v 1.8 1.3 2.8
v -1.8 1.3 1.3
v -1.4 1.3 1.3
v -1 1.3 1.3
v -0.2 1.3 1.3
v 0.2 1.3 1.3
v 1 1.3 1.3
v 1.4 1.3 1.3
v 1.8 1.3 1.3
v -1.8 1.3 0.5
v -1.4 1.3 0.5
v -1 1.3 0.5
v -0.2 1.3 0.5
v 0.2 1.3 0.5
v 1 1.3 0.5
v 1.4 1.3 0.5
v 1.8 1.3 0.5
v -1.8 1.3 0.0999999
v -1.4 1.3 0.0999999
v -1 1.3 0.0999999
v -0.2 1.3 0.0999999
v 0.2 1.3 0.0999999
v 1 1.3 0.0999999
v 1.4 1.3 0.0999999
v 1.8 1.3 0.0999999
v -1.8 1.3 -0.7
v -1.4 1.3 -0.7
v -1 1.3 -0.7
v -0.2 1.3 -0.7
v 0.2 1.3 -0.7
v 1 1.3 -0.7
v 1.4 1.3 -0.7
v 1.8 1.3 -0.7
v -1.8 1.3 -1.1
v -1.4 1.3 -1.1
v -1 1.3 -1.1
v -0.2 1.3 -1.1
v 0.2 1.3 -1.1
v 1 1.3 -1.1
v 1.4 1.3 -1.1
v 1.8 1.3 -1.1
v -1.8 1.3 -1.9
v -1.4 1.3 -1.9
v -1 1.3 -1.9
v -0.2 1.3 -1.9
v 0.2 1.3 -1.9
v 1 1.3 -1.9
v 1.4 1.3 -1.9
v 1.8 1.3 -1.9
v -1.8 1.3 -2.7
v 1.8 1.3 -2.7
v -1.9 2.4 2.8
v -1.8 2.4 2.8
v 1.8 2.4 2.8
v 1.9 2.4 2.8
v -1 2.4 1.3
v -0.2 2.4 1.3
v 0.2 2.4 1.3
v 1 2.4 1.3
v -1 2.4 0.5
v -0.2 2.4 0.5
v 0.2 2.4 0.5
v 1 2.4 0.5
v -1 2.4 0.0999999
v -0.2 2.4 0.0999999
v 0.2 2.4 0.0999999
v 1 2.4 0.0999999
v -1 2.4 -0.7
v -0.2 2.4 -0.7
v 0.2 2.4 -0.7
v 1 2.4 -0.7
v -1 2.4 -1.1
v -0.2 2.4 -1.1
v 0.2 2.4 -1.1
v 1 2.4 -1.1
v -1 2.4 -1.9
v -0.2 2.4 -1.9
v 0.2 2.4 -1.9
v 1 2.4 -1.9
v -1.8 2.4 -2.7
v 1.8 2.4 -2.7
v -1.9 2.4 -2.8
v 1.9 2.4 -2.8

# faces
f 3/2/1 2/2/1 1/2/1
f 4/2/1 2/2/1 3/2/1
f 11/3/1 6/3/1 5/3/1
f 12/3/1 6/3/1 11/3/1
f 13/3/1 8/3/1 7/3/1
f 14/3/1 8/3/1 13/3/1
f 15/3/1 10/3/1 9/3/1
f 16/3/1 10/3/1 15/3/1
f 23/3/1 18/3/1 17/3/1
f 24/3/1 18/3/1 23/3/1
f 25/3/1 20/3/1 19/3/1
f 26/3/1 20/3/1 25/3/1
f 27/3/1 22/3/1 21/3/1
f 28/3/1 22/3/1 27/3/1
f 35/3/1 30/3/1 29/3/1
f 36/3/1 30/3/1 35/3/1
f 37/3/1 32/3/1 31/3/1
f 38/3/1 32/3/1 37/3/1
f 39/3/1 34/3/1 33/3/1
f 40/3/1 34/3/1 39/3/1
f 48/2/1 42/2/1 41/2/1
f 49/2/1 42/2/1 48/2/1
f 50/2/1 44/2/1 43/2/1
f 51/2/1 44/2/1 50/2/1
f 52/2/1 46/2/1 45/2/1
f 53/2/1 46/2/1 52/2/1
f 55/2/1 51/2/1 50/2/1
f 55/2/1 54/2/1 53/2/1
f 55/2/1 53/2/1 52/2/1
f 55/2/1 52/2/1 51/2/1
f 55/2/1 49/2/1 48/2/1
f 55/2/1 50/2/1 49/2/1
f 55/2/1 48/2/1 47/2/1
f 56/2/1 54/2/1 55/2/1
f 57/2/2 58/2/2 64/2/2
f 64/2/2 58/2/2 65/2/2
f 59/2/2 60/2/2 66/2/2
f 66/2/2 60/2/2 67/2/2
f 61/2/2 62/2/2 68/2/2
f 68/2/2 62/2/2 69/2/2
f 66/2/2 67/2/2 71/2/2
f 69/2/2 70/2/2 71/2/2
f 68/2/2 69/2/2 71/2/2
f 67/2/2 68/2/2 71/2/2
f 64/2/2 65/2/2 71/2/2
f 65/2/2 66/2/2 71/2/2
f 63/2/2 64/2/2 71/2/2
f 71/2/2 70/2/2 72/2/2
f 73/3/2 74/3/2 79/3/2
f 79/3/2 74/3/2 80/3/2
f 75/3/2 76/3/2 81/3/2
f 81/3/2 76/3/2 82/3/2
f 77/3/2 78/3/2 83/3/2
f 83/3/2 78/3/2 84/3/2
f 85/3/2 86/3/2 91/3/2
f 91/3/2 86/3/2 92/3/2
f 87/3/2 88/3/2 93/3/2
f 93/3/2 88/3/2 94/3/2
f 89/3/2 90/3/2 95/3/2
f 95/3/2 90/3/2 96/3/2
f 97/3/2 98/3/2 103/3/2
f 103/3/2 98/3/2 104/3/2
f 99/3/2 100/3/2 105/3/2
f 105/3/2 100/3/2 106/3/2
f 101/3/2 102/3/2 107/3/2
f 107/3/2 102/3/2 108/3/2
f 109/2/2 110/2/2 111/2/2
f 111/2/2 110/2/2 112/2/2
f 115/2/3 114/2/3 113/2/3
f 116/2/3 114/2/3 115/2/3
f 117/2/3 114/2/3 116/2/3
f 118/2/3 114/2/3 117/2/3
f 119/3/3 116/3/3 115/3/3
f 120/3/3 116/3/3 119/3/3
f 121/1/3 118/1/3 117/1/3
f 122/1/3 118/1/3 121/1/3
f 123/2/3 120/2/3 119/2/3
f 123/2/3 121/2/3 120/2/3
f 123/2/3 122/2/3 121/2/3
f 124/2/3 122/2/3 123/2/3
f 127/3/3 126/3/3 125/3/3
f 128/3/3 126/3/3 127/3/3
f 131/3/3 130/3/3 129/3/3
f 132/3/3 130/3/3 131/3/3
f 135/3/3 134/3/3 133/3/3
f 136/3/3 134/3/3 135/3/3
f 139/3/3 138/3/3 137/3/3
f 140/3/3 138/3/3 139/3/3
f 143/3/3 142/3/3 141/3/3
f 144/3/3 142/3/3 143/3/3
f 147/3/3 146/3/3 145/3/3
f 148/3/3 146/3/3 147/3/3
f 151/3/3 150/3/3 149/3/3
f 152/3/3 150/3/3 151/3/3
f 155/3/3 154/3/3 153/3/3
f 156/3/3 154/3/3 155/3/3
f 159/3/3 158/3/3 157/3/3
f 160/3/3 158/3/3 159/3/3
f 163/3/3 162/3/3 161/3/3
f 164/3/3 162/3/3 163/3/3
f 167/3/3 166/3/3 165/3/3
f 168/3/3 166/3/3 167/3/3
f 171/3/3 170/3/3 169/3/3
f 172/3/3 170/3/3 171/3/3
f 175/2/3 174/2/3 173/2/3
f 176/2/3 174/2/3 175/2/3
f 177/3/4 178/3/4 179/3/4
f 179/3/4 178/3/4 180/3/4
f 181/3/4 182/3/4 183/3/4
f 183/3/4 182/3/4 184/3/4
f 185/3/4 186/3/4 187/3/4
f 187/3/4 186/3/4 188/3/4
f 189/3/4 190/3/4 191/3/4
f 191/3/4 190/3/4 192/3/4
f 193/3/4 194/3/4 195/3/4
f 195/3/4 194/3/4 196/3/4
f 197/3/4 198/3/4 199/3/4
f 199/3/4 198/3/4 200/3/4
f 201/3/4 202/3/4 203/3/4
f 203/3/4 202/3/4 204/3/4
f 205/3/4 206/3/4 207/3/4
f 207/3/4 206/3/4 208/3/4
f 209/3/4 210/3/4 211/3/4
f 211/3/4 210/3/4 212/3/4
f 213/3/4 214/3/4 215/3/4
f 215/3/4 214/3/4 216/3/4
f 217/3/4 218/3/4 219/3/4
f 219/3/4 218/3/4 220/3/4
f 221/3/4 222/3/4 223/3/4
f 223/3/4 222/3/4 224/3/4
f 225/2/4 226/2/4 227/2/4
f 227/2/4 226/2/4 228/2/4
f 233/2/5 230/2/5 229/2/5
f 233/3/5 231/3/5 230/3/5
f 234/3/5 231/3/5 233/3/5
f 235/3/5 231/3/5 234/3/5
f 236/3/5 231/3/5 235/3/5
f 237/3/5 231/3/5 236/3/5
f 238/3/5 231/3/5 237/3/5
f 239/3/5 231/3/5 238/3/5
f 240/2/5 232/2/5 231/2/5
f 240/3/5 231/3/5 239/3/5
f 241/2/5 233/2/5 229/2/5
f 242/3/5 235/3/5 234/3/5
f 243/3/5 235/3/5 242/3/5
f 244/3/5 237/3/5 236/3/5
f 245/3/5 237/3/5 244/3/5
f 246/3/5 239/3/5 238/3/5
f 247/3/5 239/3/5 246/3/5
f 248/2/5 232/2/5 240/2/5
f 249/3/5 245/3/5 244/3/5
f 249/3/5 248/3/5 247/3/5
f 249/3/5 247/3/5 246/3/5
f 249/3/5 243/3/5 242/3/5
f 249/3/5 246/3/5 245/3/5
f 249/2/5 241/2/5 229/2/5
f 249/3/5 244/3/5 243/3/5
f 249/3/5 242/3/5 241/3/5
f 250/3/5 248/3/5 249/3/5
f 251/3/5 248/3/5 250/3/5
f 252/3/5 248/3/5 251/3/5
f 253/3/5 248/3/5 252/3/5
f 254/3/5 248/3/5 253/3/5
f 255/3/5 248/3/5 254/3/5
f 256/2/5 232/2/5 248/2/5
f 256/3/5 248/3/5 255/3/5
f 257/2/5 249/2/5 229/2/5
f 258/3/5 251/3/5 250/3/5
f 259/3/5 251/3/5 258/3/5
f 260/3/5 253/3/5 252/3/5
f 261/3/5 253/3/5 260/3/5
f 262/3/5 255/3/5 254/3/5
f 263/3/5 255/3/5 262/3/5
f 264/2/5 232/2/5 256/2/5
f 265/3/5 261/3/5 260/3/5
f 265/3/5 264/3/5 263/3/5
f 265/3/5 263/3/5 262/3/5
f 265/3/5 259/3/5 258/3/5
f 265/3/5 262/3/5 261/3/5
f 265/2/5 257/2/5 229/2/5
f 265/3/5 260/3/5 259/3/5
f 265/3/5 258/3/5 257/3/5
f 266/3/5 264/3/5 265/3/5
f 267/3/5 264/3/5 266/3/5
f 268/3/5 264/3/5 267/3/5
f 269/3/5 264/3/5 268/3/5
f 270/3/5 264/3/5 269/3/5
f 271/3/5 264/3/5 270/3/5
f 272/2/5 232/2/5 264/2/5
f 272/3/5 264/3/5 271/3/5
f 273/2/5 265/2/5 229/2/5
f 274/3/5 267/3/5 266/3/5
f 275/3/5 267/3/5 274/3/5
f 276/3/5 269/3/5 268/3/5
f 277/3/5 269/3/5 276/3/5
f 278/3/5 271/3/5 270/3/5
f 279/3/5 271/3/5 278/3/5
f 280/2/5 232/2/5 272/2/5
f 281/3/5 277/3/5 276/3/5
f 281/3/5 280/3/5 279/3/5
f 281/3/5 279/3/5 278/3/5
f 281/3/5 275/3/5 274/3/5
f 281/3/5 278/3/5 277/3/5
f 281/2/5 273/2/5 229/2/5
f 281/3/5 276/3/5 275/3/5
f 281/3/5 274/3/5 273/3/5
f 282/2/5 232/2/5 280/2/5
f 282/3/5 280/3/5 281/3/5
f 283/2/5 281/2/5 229/2/5
f 283/2/5 282/2/5 281/2/5
f 284/2/5 232/2/5 282/2/5
f 284/2/5 282/2/5 283/2/5
f 287/1/5 286/1/5 285/1/5
f 288/1/5 286/1/5 287/1/5
f 289/1/5 286/1/5 288/1/5
f 290/1/5 286/1/5 289/1/5
f 291/1/5 287/1/5 285/1/5
f 291/4/5 288/4/5 287/4/5
f 292/1/5 289/1/5 288/1/5
f 292/4/5 288/4/5 291/4/5
f 293/4/5 290/4/5 289/4/5
f 293/1/5 289/1/5 292/1/5
f 294/1/5 286/1/5 290/1/5
f 294/4/5 290/4/5 293/4/5
f 295/1/5 293/1/5 292/1/5
f 295/1/5 292/1/5 291/1/5
f 295/1/5 294/1/5 293/1/5
f 295/1/5 291/1/5 285/1/5
f 296/1/5 294/1/5 295/1/5
f 297/1/5 294/1/5 296/1/5
f 298/1/5 286/1/5 294/1/5
f 298/1/5 294/1/5 297/1/5
f 299/1/5 295/1/5 285/1/5
f 299/4/5 296/4/5 295/4/5
f 300/1/5 297/1/5 296/1/5
f 300/4/5 296/4/5 299/4/5
f 301/4/5 298/4/5 297/4/5
f 301/1/5 297/1/5 300/1/5
f 302/1/5 286/1/5 298/1/5
f 302/4/5 298/4/5 301/4/5
f 303/1/5 299/1/5 285/1/5
f 303/1/5 301/1/5 300/1/5
f 303/1/5 302/1/5 301/1/5
f 303/1/5 300/1/5 299/1/5
f 304/1/5 302/1/5 303/1/5
f 305/1/5 302/1/5 304/1/5
f 306/1/5 286/1/5 302/1/5
f 306/1/5 302/1/5 305/1/5
f 307/1/5 303/1/5 285/1/5
f 307/4/5 304/4/5 303/4/5
f 308/1/5 305/1/5 304/1/5
f 308/4/5 304/4/5 307/4/5
f 309/4/5 306/4/5 305/4/5
f 309/1/5 305/1/5 308/1/5
f 310/1/5 286/1/5 306/1/5
f 310/4/5 306/4/5 309/4/5
f 311/1/5 307/1/5 285/1/5
f 311/1/5 309/1/5 308/1/5
f 311/1/5 310/1/5 309/1/5
f 311/1/5 308/1/5 307/1/5
f 312/1/5 286/1/5 310/1/5
f 312/1/5 310/1/5 311/1/5
f 313/3/6 314/3/6 315/3/6
f 315/3/6 314/3/6 316/3/6
f 316/3/6 314/3/6 317/3/6
f 317/3/6 314/3/6 318/3/6
f 318/3/6 314/3/6 319/3/6
f 319/3/6 314/3/6 320/3/6
f 320/3/6 314/3/6 321/3/6
f 321/3/6 314/3/6 322/3/6
f 316/3/6 317/3/6 324/3/6
f 324/3/6 317/3/6 325/3/6
f 318/3/6 319/3/6 326/3/6
f 326/3/6 319/3/6 327/3/6
f 320/3/6 321/3/6 328/3/6
f 328/3/6 321/3/6 329/3/6
f 324/3/6 325/3/6 331/3/6
f 329/3/6 330/3/6 331/3/6
f 328/3/6 329/3/6 331/3/6
f 327/3/6 328/3/6 331/3/6
f 326/3/6 327/3/6 331/3/6
f 325/3/6 326/3/6 331/3/6
f 323/3/6 324/3/6 331/3/6
f 331/3/6 330/3/6 332/3/6
f 332/3/6 330/3/6 333/3/6
f 333/3/6 330/3/6 334/3/6
f 334/3/6 330/3/6 335/3/6
f 335/3/6 330/3/6 336/3/6
f 336/3/6 330/3/6 337/3/6
f 337/3/6 330/3/6 338/3/6
f 332/3/6 333/3/6 340/3/6
f 340/3/6 333/3/6 341/3/6
f 334/3/6 335/3/6 342/3/6
f 342/3/6 335/3/6 343/3/6
f 336/3/6 337/3/6 344/3/6
f 344/3/6 337/3/6 345/3/6
f 340/3/6 341/3/6 347/3/6
f 345/3/6 346/3/6 347/3/6
f 344/3/6 345/3/6 347/3/6
f 343/3/6 344/3/6 347/3/6
f 342/3/6 343/3/6 347/3/6
f 341/3/6 342/3/6 347/3/6
f 339/3/6 340/3/6 347/3/6
f 347/3/6 346/3/6 348/3/6
f 348/3/6 346/3/6 349/3/6
f 349/3/6 346/3/6 350/3/6
f 350/3/6 346/3/6 351/3/6
f 351/3/6 346/3/6 352/3/6
f 352/3/6 346/3/6 353/3/6
f 353/3/6 346/3/6 354/3/6
f 348/3/6 349/3/6 356/3/6
f 356/3/6 349/3/6 357/3/6
f 350/3/6 351/3/6 358/3/6
f 358/3/6 351/3/6 359/3/6
f 352/3/6 353/3/6 360/3/6
f 360/3/6 353/3/6 361/3/6
f 356/3/6 357/3/6 363/3/6
f 361/3/6 362/3/6 363/3/6
f 360/3/6 361/3/6 363/3/6
f 359/3/6 360/3/6 363/3/6
f 358/3/6 359/3/6 363/3/6
f 357/3/6 358/3/6 363/3/6
f 355/3/6 356/3/6 363/3/6
f 363/3/6 362/3/6 364/3/6
f 366/1/6 367/1/6 369/1/6
f 369/1/6 367/1/6 370/1/6
f 370/1/6 367/1/6 371/1/6
f 371/1/6 367/1/6 372/1/6
f 366/1/6 369/1/6 373/1/6
f 369/4/6 370/4/6 373/4/6
f 370/1/6 371/1/6 374/1/6
f 373/4/6 370/4/6 374/4/6
f 371/4/6 372/4/6 375/4/6
f 374/1/6 371/1/6 375/1/6
f 372/1/6 367/1/6 376/1/6
f 375/4/6 372/4/6 376/4/6
f 374/1/6 375/1/6 377/1/6
f 373/1/6 374/1/6 377/1/6
f 375/1/6 376/1/6 377/1/6
f 366/1/6 373/1/6 377/1/6
f 377/1/6 376/1/6 378/1/6
f 378/1/6 376/1/6 379/1/6
f 376/1/6 367/1/6 380/1/6
f 379/1/6 376/1/6 380/1/6
f 366/1/6 377/1/6 381/1/6
f 377/4/6 378/4/6 381/4/6
f 378/1/6 379/1/6 382/1/6
f 381/4/6 378/4/6 382/4/6
f 379/4/6 380/4/6 383/4/6
f 382/1/6 379/1/6 383/1/6
f 380/1/6 367/1/6 384/1/6
f 383/4/6 380/4/6 384/4/6
f 366/1/6 381/1/6 385/1/6
f 382/1/6 383/1/6 385/1/6
f 383/1/6 384/1/6 385/1/6
f 381/1/6 382/1/6 385/1/6
f 385/1/6 384/1/6 386/1/6
f 386/1/6 384/1/6 387/1/6
f 384/1/6 367/1/6 388/1/6
f 387/1/6 384/1/6 388/1/6
f 366/1/6 385/1/6 389/1/6
f 385/4/6 386/4/6 389/4/6
f 386/1/6 387/1/6 390/1/6
f 389/4/6 386/4/6 390/4/6
f 387/4/6 388/4/6 391/4/6
f 390/1/6 387/1/6 391/1/6
f 388/1/6 367/1/6 392/1/6
f 391/4/6 388/4/6 392/4/6
f 365/2/6 366/2/6 393/2/6
f 366/1/6 389/1/6 393/1/6
f 391/1/6 392/1/6 393/1/6
f 389/1/6 390/1/6 393/1/6
f 390/1/6 391/1/6 393/1/6
f 392/1/6 367/1/6 394/1/6
f 393/1/6 392/1/6 394/1/6
f 367/2/6 368/2/6 394/2/6
f 365/2/6 393/2/6 395/2/6
f 393/2/6 394/2/6 395/2/6
f 394/2/6 368/2/6 396/2/6
f 395/2/6 394/2/6 396/2/6
